<svg width="19" height="8" viewBox="0 0 19 8" fill="none" xmlns="http://www.w3.org/2000/svg">
<path d="M17.9178 4.32474C18.1132 4.1296 18.1134 3.81302 17.9182 3.61763L14.7383 0.433595C14.5432 0.238206 14.2266 0.238001 14.0312 0.433137C13.8358 0.628273 13.8356 0.944855 14.0307 1.14024L16.8573 3.9705L14.0271 6.7971C13.8317 6.99223 13.8315 7.30881 14.0266 7.5042C14.2218 7.69959 14.5383 7.6998 14.7337 7.50466L17.9178 4.32474ZM0.56413 4.45996L17.5641 4.47096L17.5648 3.47096L0.564777 3.45996L0.56413 4.45996Z" fill="black"/>
<path d="M17.9178 4.32474C18.1132 4.1296 18.1134 3.81302 17.9182 3.61763L14.7383 0.433595C14.5432 0.238206 14.2266 0.238001 14.0312 0.433137C13.8358 0.628273 13.8356 0.944855 14.0307 1.14024L16.8573 3.9705L14.0271 6.7971C13.8317 6.99223 13.8315 7.30881 14.0266 7.5042C14.2218 7.69959 14.5383 7.6998 14.7337 7.50466L17.9178 4.32474ZM0.56413 4.45996L17.5641 4.47096L17.5648 3.47096L0.564777 3.45996L0.56413 4.45996Z" fill="url(#paint0_linear)"/>
<defs>
<linearGradient id="paint0_linear" x1="9.06445" y1="3.96546" x2="9.0638" y2="4.96546" gradientUnits="userSpaceOnUse">
<stop stop-color="#18BAC8"/>
<stop offset="1" stop-color="#27B4C0"/>
</linearGradient>
</defs>
</svg>
